<mxfile host="Electron" modified="2023-12-05T08:45:24.393Z" agent="Mozilla/5.0 (Windows NT 10.0; Win64; x64) AppleWebKit/537.36 (KHTML, like Gecko) draw.io/21.7.5 Chrome/114.0.5735.289 Electron/25.8.1 Safari/537.36" etag="uoY05yxsKJfUaL7jL-QW" version="21.7.5" type="device">
  <diagram name="Page-1" id="LAazp7ebP9uyuG7zHOVe">
    <mxGraphModel dx="2670" dy="887" grid="1" gridSize="10" guides="1" tooltips="1" connect="1" arrows="1" fold="1" page="1" pageScale="1" pageWidth="827" pageHeight="1169" math="0" shadow="0">
      <root>
        <mxCell id="0" />
        <mxCell id="1" parent="0" />
        <mxCell id="bsPFwAUYeZv_du8WgnMo-1" value="Client" style="shape=umlActor;verticalLabelPosition=bottom;verticalAlign=top;html=1;outlineConnect=0;" parent="1" vertex="1">
          <mxGeometry x="-120" y="112" width="30" height="60" as="geometry" />
        </mxCell>
        <mxCell id="bsPFwAUYeZv_du8WgnMo-5" value="Client class" style="shape=umlLifeline;perimeter=lifelinePerimeter;whiteSpace=wrap;html=1;container=1;dropTarget=0;collapsible=0;recursiveResize=0;outlineConnect=0;portConstraint=eastwest;newEdgeStyle={&quot;curved&quot;:0,&quot;rounded&quot;:0};size=40;" parent="1" vertex="1">
          <mxGeometry x="220" y="150" width="100" height="570" as="geometry" />
        </mxCell>
        <mxCell id="bsPFwAUYeZv_du8WgnMo-6" value="Article class" style="shape=umlLifeline;perimeter=lifelinePerimeter;whiteSpace=wrap;html=1;container=1;dropTarget=0;collapsible=0;recursiveResize=0;outlineConnect=0;portConstraint=eastwest;newEdgeStyle={&quot;curved&quot;:0,&quot;rounded&quot;:0};size=40;" parent="1" vertex="1">
          <mxGeometry x="430" y="150" width="100" height="570" as="geometry" />
        </mxCell>
        <mxCell id="bsPFwAUYeZv_du8WgnMo-7" value="Database" style="shape=umlLifeline;perimeter=lifelinePerimeter;whiteSpace=wrap;html=1;container=1;dropTarget=0;collapsible=0;recursiveResize=0;outlineConnect=0;portConstraint=eastwest;newEdgeStyle={&quot;curved&quot;:0,&quot;rounded&quot;:0};size=40;" parent="1" vertex="1">
          <mxGeometry x="680" y="150" width="100" height="570" as="geometry" />
        </mxCell>
        <mxCell id="bsPFwAUYeZv_du8WgnMo-8" value="Main" style="shape=umlLifeline;perimeter=lifelinePerimeter;whiteSpace=wrap;html=1;container=1;dropTarget=0;collapsible=0;recursiveResize=0;outlineConnect=0;portConstraint=eastwest;newEdgeStyle={&quot;curved&quot;:0,&quot;rounded&quot;:0};size=40;" parent="1" vertex="1">
          <mxGeometry x="20" y="150" width="100" height="570" as="geometry" />
        </mxCell>
        <mxCell id="vsTLp-X4qTqSYLvqG_rk-35" value="" style="html=1;points=[[0,0,0,0,5],[0,1,0,0,-5],[1,0,0,0,5],[1,1,0,0,-5]];perimeter=orthogonalPerimeter;outlineConnect=0;targetShapes=umlLifeline;portConstraint=eastwest;newEdgeStyle={&quot;curved&quot;:0,&quot;rounded&quot;:0};" vertex="1" parent="bsPFwAUYeZv_du8WgnMo-8">
          <mxGeometry x="45" y="93" width="10" height="427" as="geometry" />
        </mxCell>
        <mxCell id="vsTLp-X4qTqSYLvqG_rk-1" value="" style="endArrow=none;dashed=1;html=1;dashPattern=1 3;strokeWidth=2;rounded=0;" edge="1" parent="1">
          <mxGeometry width="50" height="50" relative="1" as="geometry">
            <mxPoint x="-105" y="720" as="sourcePoint" />
            <mxPoint x="-105" y="210" as="targetPoint" />
          </mxGeometry>
        </mxCell>
        <mxCell id="vsTLp-X4qTqSYLvqG_rk-2" value="" style="endArrow=classic;html=1;rounded=0;" edge="1" parent="1" target="bsPFwAUYeZv_du8WgnMo-8">
          <mxGeometry width="50" height="50" relative="1" as="geometry">
            <mxPoint x="-100" y="270" as="sourcePoint" />
            <mxPoint x="140" y="250" as="targetPoint" />
          </mxGeometry>
        </mxCell>
        <mxCell id="vsTLp-X4qTqSYLvqG_rk-3" value="fill mail textbox" style="text;html=1;strokeColor=none;fillColor=none;align=center;verticalAlign=middle;whiteSpace=wrap;rounded=0;" vertex="1" parent="1">
          <mxGeometry x="-70" y="240" width="100" height="30" as="geometry" />
        </mxCell>
        <mxCell id="vsTLp-X4qTqSYLvqG_rk-4" value="" style="endArrow=classic;html=1;rounded=0;" edge="1" parent="1">
          <mxGeometry width="50" height="50" relative="1" as="geometry">
            <mxPoint x="70" y="281" as="sourcePoint" />
            <mxPoint x="269.5" y="281" as="targetPoint" />
          </mxGeometry>
        </mxCell>
        <mxCell id="vsTLp-X4qTqSYLvqG_rk-5" value="store mail" style="text;html=1;strokeColor=none;fillColor=none;align=center;verticalAlign=middle;whiteSpace=wrap;rounded=0;" vertex="1" parent="1">
          <mxGeometry x="130" y="251" width="100" height="30" as="geometry" />
        </mxCell>
        <mxCell id="vsTLp-X4qTqSYLvqG_rk-6" value="" style="endArrow=classic;html=1;rounded=0;" edge="1" parent="1">
          <mxGeometry width="50" height="50" relative="1" as="geometry">
            <mxPoint x="-100" y="323" as="sourcePoint" />
            <mxPoint x="70" y="323" as="targetPoint" />
          </mxGeometry>
        </mxCell>
        <mxCell id="vsTLp-X4qTqSYLvqG_rk-7" value="fill password textbox" style="text;html=1;strokeColor=none;fillColor=none;align=center;verticalAlign=middle;whiteSpace=wrap;rounded=0;" vertex="1" parent="1">
          <mxGeometry x="-70" y="293" width="100" height="30" as="geometry" />
        </mxCell>
        <mxCell id="vsTLp-X4qTqSYLvqG_rk-8" value="" style="endArrow=classic;html=1;rounded=0;" edge="1" parent="1">
          <mxGeometry width="50" height="50" relative="1" as="geometry">
            <mxPoint x="70" y="316" as="sourcePoint" />
            <mxPoint x="270" y="316" as="targetPoint" />
          </mxGeometry>
        </mxCell>
        <mxCell id="vsTLp-X4qTqSYLvqG_rk-9" value="store password" style="text;html=1;strokeColor=none;fillColor=none;align=center;verticalAlign=middle;whiteSpace=wrap;rounded=0;" vertex="1" parent="1">
          <mxGeometry x="130" y="286" width="100" height="30" as="geometry" />
        </mxCell>
        <mxCell id="vsTLp-X4qTqSYLvqG_rk-10" value="" style="endArrow=classic;html=1;rounded=0;" edge="1" parent="1">
          <mxGeometry width="50" height="50" relative="1" as="geometry">
            <mxPoint x="-101" y="365" as="sourcePoint" />
            <mxPoint x="69" y="365" as="targetPoint" />
          </mxGeometry>
        </mxCell>
        <mxCell id="vsTLp-X4qTqSYLvqG_rk-11" value="press login button" style="text;html=1;strokeColor=none;fillColor=none;align=center;verticalAlign=middle;whiteSpace=wrap;rounded=0;" vertex="1" parent="1">
          <mxGeometry x="-71" y="335" width="100" height="30" as="geometry" />
        </mxCell>
        <mxCell id="vsTLp-X4qTqSYLvqG_rk-12" value="" style="endArrow=classic;html=1;rounded=0;" edge="1" parent="1" source="vsTLp-X4qTqSYLvqG_rk-36">
          <mxGeometry width="50" height="50" relative="1" as="geometry">
            <mxPoint x="71" y="373" as="sourcePoint" />
            <mxPoint x="271" y="373" as="targetPoint" />
          </mxGeometry>
        </mxCell>
        <mxCell id="vsTLp-X4qTqSYLvqG_rk-13" value="connect(mail, password)" style="text;html=1;strokeColor=none;fillColor=none;align=center;verticalAlign=middle;whiteSpace=wrap;rounded=0;" vertex="1" parent="1">
          <mxGeometry x="88" y="343" width="161" height="30" as="geometry" />
        </mxCell>
        <mxCell id="vsTLp-X4qTqSYLvqG_rk-14" value="" style="endArrow=classic;html=1;rounded=0;" edge="1" parent="1">
          <mxGeometry width="50" height="50" relative="1" as="geometry">
            <mxPoint x="269.32352941176464" y="390" as="sourcePoint" />
            <mxPoint x="729.5" y="390" as="targetPoint" />
          </mxGeometry>
        </mxCell>
        <mxCell id="vsTLp-X4qTqSYLvqG_rk-15" value="retreive password in database with mail" style="text;html=1;strokeColor=none;fillColor=none;align=center;verticalAlign=middle;whiteSpace=wrap;rounded=0;" vertex="1" parent="1">
          <mxGeometry x="300" y="360" width="161" height="30" as="geometry" />
        </mxCell>
        <mxCell id="vsTLp-X4qTqSYLvqG_rk-18" value="" style="endArrow=classic;html=1;rounded=0;" edge="1" parent="1" target="bsPFwAUYeZv_du8WgnMo-7">
          <mxGeometry width="50" height="50" relative="1" as="geometry">
            <mxPoint x="729.9285714285713" y="390" as="sourcePoint" />
            <mxPoint x="760" y="410" as="targetPoint" />
            <Array as="points">
              <mxPoint x="760" y="390" />
              <mxPoint x="760" y="410" />
            </Array>
          </mxGeometry>
        </mxCell>
        <mxCell id="vsTLp-X4qTqSYLvqG_rk-20" value="databasePassword" style="html=1;verticalAlign=bottom;endArrow=open;dashed=1;endSize=8;curved=0;rounded=0;" edge="1" parent="1" source="vsTLp-X4qTqSYLvqG_rk-38">
          <mxGeometry x="-1" y="-155" relative="1" as="geometry">
            <mxPoint x="729.5" y="409.9999999999999" as="sourcePoint" />
            <mxPoint x="270" y="410" as="targetPoint" />
            <mxPoint x="155" y="155" as="offset" />
          </mxGeometry>
        </mxCell>
        <mxCell id="vsTLp-X4qTqSYLvqG_rk-21" value="alt" style="shape=umlFrame;whiteSpace=wrap;html=1;pointerEvents=0;" vertex="1" parent="1">
          <mxGeometry x="-150" y="427" width="950" height="133" as="geometry" />
        </mxCell>
        <mxCell id="vsTLp-X4qTqSYLvqG_rk-22" value="[ password == databasePassword ]" style="text;align=center;fontStyle=1;verticalAlign=middle;spacingLeft=3;spacingRight=3;strokeColor=none;rotatable=0;points=[[0,0.5],[1,0.5]];portConstraint=eastwest;html=1;" vertex="1" parent="1">
          <mxGeometry x="-140" y="467" width="220" height="26" as="geometry" />
        </mxCell>
        <mxCell id="vsTLp-X4qTqSYLvqG_rk-23" value="" style="html=1;verticalAlign=bottom;endArrow=open;dashed=1;endSize=8;curved=0;rounded=0;" edge="1" parent="1" target="bsPFwAUYeZv_du8WgnMo-8">
          <mxGeometry x="-0.8716" relative="1" as="geometry">
            <mxPoint x="269.5" y="518" as="sourcePoint" />
            <mxPoint y="518" as="targetPoint" />
            <mxPoint as="offset" />
          </mxGeometry>
        </mxCell>
        <mxCell id="vsTLp-X4qTqSYLvqG_rk-24" value="showArticles()" style="text;html=1;strokeColor=none;fillColor=none;align=center;verticalAlign=middle;whiteSpace=wrap;rounded=0;" vertex="1" parent="1">
          <mxGeometry x="88" y="480" width="161" height="30" as="geometry" />
        </mxCell>
        <mxCell id="vsTLp-X4qTqSYLvqG_rk-26" value="" style="html=1;verticalAlign=bottom;endArrow=open;dashed=1;endSize=8;curved=0;rounded=0;" edge="1" parent="1">
          <mxGeometry x="-0.8716" relative="1" as="geometry">
            <mxPoint x="69.75" y="531" as="sourcePoint" />
            <mxPoint x="-110" y="531" as="targetPoint" />
            <mxPoint as="offset" />
          </mxGeometry>
        </mxCell>
        <mxCell id="vsTLp-X4qTqSYLvqG_rk-27" value="show article page" style="text;html=1;strokeColor=none;fillColor=none;align=center;verticalAlign=middle;whiteSpace=wrap;rounded=0;" vertex="1" parent="1">
          <mxGeometry x="-100.5" y="500" width="161" height="30" as="geometry" />
        </mxCell>
        <mxCell id="vsTLp-X4qTqSYLvqG_rk-29" value="alt" style="shape=umlFrame;whiteSpace=wrap;html=1;pointerEvents=0;" vertex="1" parent="1">
          <mxGeometry x="-150" y="561" width="950" height="133" as="geometry" />
        </mxCell>
        <mxCell id="vsTLp-X4qTqSYLvqG_rk-30" value="[ password != databasePassword ]" style="text;align=center;fontStyle=1;verticalAlign=middle;spacingLeft=3;spacingRight=3;strokeColor=none;rotatable=0;points=[[0,0.5],[1,0.5]];portConstraint=eastwest;html=1;" vertex="1" parent="1">
          <mxGeometry x="-140" y="601" width="220" height="26" as="geometry" />
        </mxCell>
        <mxCell id="vsTLp-X4qTqSYLvqG_rk-31" value="" style="html=1;verticalAlign=bottom;endArrow=open;dashed=1;endSize=8;curved=0;rounded=0;" edge="1" parent="1">
          <mxGeometry x="-0.8716" relative="1" as="geometry">
            <mxPoint x="269.5" y="652" as="sourcePoint" />
            <mxPoint x="70" y="652" as="targetPoint" />
            <mxPoint as="offset" />
          </mxGeometry>
        </mxCell>
        <mxCell id="vsTLp-X4qTqSYLvqG_rk-32" value="showError()" style="text;html=1;strokeColor=none;fillColor=none;align=center;verticalAlign=middle;whiteSpace=wrap;rounded=0;" vertex="1" parent="1">
          <mxGeometry x="88" y="614" width="161" height="30" as="geometry" />
        </mxCell>
        <mxCell id="vsTLp-X4qTqSYLvqG_rk-33" value="" style="html=1;verticalAlign=bottom;endArrow=open;dashed=1;endSize=8;curved=0;rounded=0;" edge="1" parent="1">
          <mxGeometry x="-0.8716" relative="1" as="geometry">
            <mxPoint x="69.75" y="665" as="sourcePoint" />
            <mxPoint x="-110" y="665" as="targetPoint" />
            <mxPoint as="offset" />
          </mxGeometry>
        </mxCell>
        <mxCell id="vsTLp-X4qTqSYLvqG_rk-34" value="show error message" style="text;html=1;strokeColor=none;fillColor=none;align=center;verticalAlign=middle;whiteSpace=wrap;rounded=0;" vertex="1" parent="1">
          <mxGeometry x="-100.5" y="634" width="161" height="30" as="geometry" />
        </mxCell>
        <mxCell id="vsTLp-X4qTqSYLvqG_rk-37" value="" style="endArrow=classic;html=1;rounded=0;" edge="1" parent="1" target="vsTLp-X4qTqSYLvqG_rk-36">
          <mxGeometry width="50" height="50" relative="1" as="geometry">
            <mxPoint x="71" y="373" as="sourcePoint" />
            <mxPoint x="271" y="373" as="targetPoint" />
          </mxGeometry>
        </mxCell>
        <mxCell id="vsTLp-X4qTqSYLvqG_rk-36" value="" style="html=1;points=[[0,0,0,0,5],[0,1,0,0,-5],[1,0,0,0,5],[1,1,0,0,-5]];perimeter=orthogonalPerimeter;outlineConnect=0;targetShapes=umlLifeline;portConstraint=eastwest;newEdgeStyle={&quot;curved&quot;:0,&quot;rounded&quot;:0};" vertex="1" parent="1">
          <mxGeometry x="270" y="243" width="10" height="427" as="geometry" />
        </mxCell>
        <mxCell id="vsTLp-X4qTqSYLvqG_rk-39" value="" style="html=1;verticalAlign=bottom;endArrow=open;dashed=1;endSize=8;curved=0;rounded=0;" edge="1" parent="1" target="vsTLp-X4qTqSYLvqG_rk-38">
          <mxGeometry x="-0.8716" relative="1" as="geometry">
            <mxPoint x="729.5" y="409.9999999999999" as="sourcePoint" />
            <mxPoint x="270" y="410" as="targetPoint" />
            <mxPoint as="offset" />
          </mxGeometry>
        </mxCell>
        <mxCell id="vsTLp-X4qTqSYLvqG_rk-38" value="" style="html=1;points=[[0,0,0,0,5],[0,1,0,0,-5],[1,0,0,0,5],[1,1,0,0,-5]];perimeter=orthogonalPerimeter;outlineConnect=0;targetShapes=umlLifeline;portConstraint=eastwest;newEdgeStyle={&quot;curved&quot;:0,&quot;rounded&quot;:0};" vertex="1" parent="1">
          <mxGeometry x="475" y="350" width="10" height="90" as="geometry" />
        </mxCell>
      </root>
    </mxGraphModel>
  </diagram>
</mxfile>
